<svg width="55" height="40" viewBox="0 0 55 40" fill="none" xmlns="http://www.w3.org/2000/svg">
<path d="M46 0H10H0V2.5H10V6.5L46 30.5H52V40H54.5V9.5L51 2.5L46 0Z" fill="url(#paint0_linear_1632_66)"/>
<g filter="url(#filter0_b_1632_66)">
<path d="M24.751 7.55566H25.7764C25.7627 7.85254 25.6826 8.11426 25.5361 8.34082C25.3896 8.56738 25.1865 8.74414 24.9268 8.87109C24.6689 8.99609 24.3643 9.05859 24.0127 9.05859C23.7275 9.05859 23.4727 9.01074 23.248 8.91504C23.0254 8.81934 22.8359 8.68164 22.6797 8.50195C22.5254 8.32227 22.4072 8.10449 22.3252 7.84863C22.2451 7.59277 22.2051 7.30469 22.2051 6.98438V6.75293C22.2051 6.43262 22.2471 6.14453 22.3311 5.88867C22.417 5.63086 22.5381 5.41211 22.6943 5.23242C22.8525 5.05078 23.042 4.91211 23.2627 4.81641C23.4834 4.7207 23.7285 4.67285 23.998 4.67285C24.3691 4.67285 24.6826 4.73926 24.9385 4.87207C25.1943 5.00488 25.3926 5.1875 25.5332 5.41992C25.6738 5.65039 25.7568 5.91309 25.7822 6.20801H24.7568C24.7529 6.04785 24.7256 5.91406 24.6748 5.80664C24.624 5.69727 24.5439 5.61523 24.4346 5.56055C24.3252 5.50586 24.1797 5.47852 23.998 5.47852C23.8711 5.47852 23.7607 5.50195 23.667 5.54883C23.5732 5.5957 23.4951 5.66992 23.4326 5.77148C23.3701 5.87305 23.3232 6.00488 23.292 6.16699C23.2627 6.32715 23.248 6.52051 23.248 6.74707V6.98438C23.248 7.21094 23.2617 7.4043 23.2891 7.56445C23.3164 7.72461 23.3604 7.85547 23.4209 7.95703C23.4814 8.05859 23.5596 8.13379 23.6553 8.18262C23.7529 8.22949 23.8721 8.25293 24.0127 8.25293C24.1689 8.25293 24.3008 8.22852 24.4082 8.17969C24.5156 8.12891 24.5986 8.05273 24.6572 7.95117C24.7158 7.84766 24.7471 7.71582 24.751 7.55566ZM29.8721 6.78223V6.95508C29.8721 7.28125 29.8262 7.57422 29.7344 7.83398C29.6445 8.0918 29.5166 8.3125 29.3506 8.49609C29.1846 8.67773 28.9883 8.81738 28.7617 8.91504C28.5352 9.01074 28.2852 9.05859 28.0117 9.05859C27.7363 9.05859 27.4844 9.01074 27.2559 8.91504C27.0293 8.81738 26.832 8.67773 26.6641 8.49609C26.498 8.3125 26.3691 8.0918 26.2773 7.83398C26.1875 7.57422 26.1426 7.28125 26.1426 6.95508V6.78223C26.1426 6.45605 26.1875 6.16309 26.2773 5.90332C26.3691 5.64355 26.4971 5.42285 26.6611 5.24121C26.8271 5.05762 27.0234 4.91797 27.25 4.82227C27.4785 4.72461 27.7305 4.67578 28.0059 4.67578C28.2793 4.67578 28.5293 4.72461 28.7559 4.82227C28.9844 4.91797 29.1816 5.05762 29.3477 5.24121C29.5137 5.42285 29.6426 5.64355 29.7344 5.90332C29.8262 6.16309 29.8721 6.45605 29.8721 6.78223ZM28.8291 6.95508V6.77637C28.8291 6.56543 28.8105 6.37988 28.7734 6.21973C28.7383 6.05762 28.6855 5.92188 28.6152 5.8125C28.5449 5.70312 28.458 5.62109 28.3545 5.56641C28.2529 5.50977 28.1367 5.48145 28.0059 5.48145C27.8691 5.48145 27.75 5.50977 27.6484 5.56641C27.5469 5.62109 27.4619 5.70312 27.3936 5.8125C27.3252 5.92188 27.2734 6.05762 27.2383 6.21973C27.2051 6.37988 27.1885 6.56543 27.1885 6.77637V6.95508C27.1885 7.16406 27.2051 7.34961 27.2383 7.51172C27.2734 7.67188 27.3252 7.80762 27.3936 7.91895C27.4639 8.03027 27.5498 8.11426 27.6514 8.1709C27.7549 8.22754 27.875 8.25586 28.0117 8.25586C28.1426 8.25586 28.2588 8.22754 28.3604 8.1709C28.4619 8.11426 28.5469 8.03027 28.6152 7.91895C28.6855 7.80762 28.7383 7.67188 28.7734 7.51172C28.8105 7.34961 28.8291 7.16406 28.8291 6.95508ZM30.915 4.73438H31.7529L32.7051 7.70215L33.6572 4.73438H34.4951L33.0449 9H32.3652L30.915 4.73438ZM30.4053 4.73438H31.2725L31.4336 8.00391V9H30.4053V4.73438ZM34.1377 4.73438H35.0078V9H33.9766V8.00391L34.1377 4.73438ZM36.7598 4.73438V9H35.7344V4.73438H36.7598ZM41.0459 4.73438V9H40.0205L38.5117 6.3457V9H37.4834V4.73438H38.5117L40.0205 7.38867V4.73438H41.0459ZM45.1855 6.7207V8.47266C45.1133 8.55273 45.002 8.63867 44.8516 8.73047C44.7031 8.82031 44.5156 8.89746 44.2891 8.96191C44.0625 9.02637 43.7959 9.05859 43.4893 9.05859C43.2061 9.05859 42.9492 9.01367 42.7188 8.92383C42.4883 8.83203 42.29 8.69824 42.124 8.52246C41.96 8.34473 41.833 8.12793 41.7432 7.87207C41.6553 7.61426 41.6113 7.31934 41.6113 6.9873V6.75C41.6113 6.41797 41.6562 6.12305 41.7461 5.86523C41.8359 5.60742 41.9619 5.39062 42.124 5.21484C42.2881 5.03711 42.4805 4.90234 42.7012 4.81055C42.9238 4.71875 43.168 4.67285 43.4336 4.67285C43.8262 4.67285 44.1455 4.73535 44.3916 4.86035C44.6377 4.9834 44.8242 5.1543 44.9512 5.37305C45.0781 5.58984 45.1553 5.84082 45.1826 6.12598H44.1953C44.1758 5.98535 44.1387 5.86621 44.084 5.76855C44.0312 5.66895 43.9551 5.59375 43.8555 5.54297C43.7559 5.49023 43.627 5.46387 43.4688 5.46387C43.3457 5.46387 43.2334 5.49023 43.1318 5.54297C43.0322 5.5957 42.9473 5.67578 42.877 5.7832C42.8066 5.88867 42.752 6.02148 42.7129 6.18164C42.6758 6.3418 42.6572 6.5293 42.6572 6.74414V6.9873C42.6572 7.2002 42.6748 7.38672 42.71 7.54688C42.7471 7.70703 42.8018 7.84082 42.874 7.94824C42.9482 8.05371 43.042 8.13379 43.1553 8.18848C43.2705 8.24121 43.4062 8.26758 43.5625 8.26758C43.6719 8.26758 43.7656 8.25879 43.8438 8.24121C43.9219 8.22168 43.9863 8.19824 44.0371 8.1709C44.0898 8.1416 44.1299 8.11426 44.1572 8.08887V7.42676H43.4424V6.7207H45.1855ZM31.9932 14.8662C31.9932 14.7998 31.9834 14.7402 31.9639 14.6875C31.9443 14.6328 31.9082 14.582 31.8555 14.5352C31.8027 14.4883 31.7266 14.4414 31.627 14.3945C31.5293 14.3457 31.4004 14.2949 31.2402 14.2422C31.0527 14.1797 30.8721 14.1094 30.6982 14.0312C30.5244 13.9512 30.3691 13.8584 30.2324 13.7529C30.0957 13.6455 29.9873 13.5205 29.9072 13.3779C29.8271 13.2334 29.7871 13.0654 29.7871 12.874C29.7871 12.6904 29.8281 12.5254 29.9102 12.3789C29.9922 12.2305 30.1064 12.1045 30.2529 12.001C30.4014 11.8955 30.5752 11.8154 30.7744 11.7607C30.9736 11.7041 31.1914 11.6758 31.4277 11.6758C31.7402 11.6758 32.0156 11.7305 32.2539 11.8398C32.4941 11.9473 32.6816 12.1006 32.8164 12.2998C32.9531 12.4971 33.0215 12.7305 33.0215 13H31.999C31.999 12.8926 31.9766 12.7979 31.9316 12.7158C31.8887 12.6338 31.8232 12.5693 31.7354 12.5225C31.6475 12.4756 31.5371 12.4521 31.4043 12.4521C31.2754 12.4521 31.167 12.4717 31.0791 12.5107C30.9912 12.5498 30.9248 12.6025 30.8799 12.6689C30.835 12.7334 30.8125 12.8047 30.8125 12.8828C30.8125 12.9473 30.8301 13.0059 30.8652 13.0586C30.9023 13.1094 30.9541 13.1572 31.0205 13.2021C31.0889 13.2471 31.1709 13.29 31.2666 13.3311C31.3643 13.3721 31.4736 13.4121 31.5947 13.4512C31.8213 13.5234 32.0225 13.6045 32.1982 13.6943C32.376 13.7822 32.5254 13.8828 32.6465 13.9961C32.7695 14.1074 32.8623 14.2344 32.9248 14.377C32.9893 14.5195 33.0215 14.6807 33.0215 14.8604C33.0215 15.0518 32.9844 15.2217 32.9102 15.3701C32.8359 15.5186 32.7295 15.6445 32.5908 15.748C32.4521 15.8496 32.2861 15.9268 32.0928 15.9795C31.8994 16.0322 31.6836 16.0586 31.4453 16.0586C31.2266 16.0586 31.0107 16.0312 30.7979 15.9766C30.5869 15.9199 30.3955 15.834 30.2236 15.7188C30.0518 15.6016 29.9141 15.4521 29.8105 15.2705C29.709 15.0869 29.6582 14.8691 29.6582 14.6172H30.6895C30.6895 14.7422 30.7061 14.8477 30.7393 14.9336C30.7725 15.0195 30.8213 15.0889 30.8857 15.1416C30.9502 15.1924 31.0293 15.2295 31.123 15.2529C31.2168 15.2744 31.3242 15.2852 31.4453 15.2852C31.5762 15.2852 31.6816 15.2666 31.7617 15.2295C31.8418 15.1904 31.9004 15.1396 31.9375 15.0771C31.9746 15.0127 31.9932 14.9424 31.9932 14.8662ZM37.1611 13.7822V13.9551C37.1611 14.2812 37.1152 14.5742 37.0234 14.834C36.9336 15.0918 36.8057 15.3125 36.6396 15.4961C36.4736 15.6777 36.2773 15.8174 36.0508 15.915C35.8242 16.0107 35.5742 16.0586 35.3008 16.0586C35.0254 16.0586 34.7734 16.0107 34.5449 15.915C34.3184 15.8174 34.1211 15.6777 33.9531 15.4961C33.7871 15.3125 33.6582 15.0918 33.5664 14.834C33.4766 14.5742 33.4316 14.2812 33.4316 13.9551V13.7822C33.4316 13.4561 33.4766 13.1631 33.5664 12.9033C33.6582 12.6436 33.7861 12.4229 33.9502 12.2412C34.1162 12.0576 34.3125 11.918 34.5391 11.8223C34.7676 11.7246 35.0195 11.6758 35.2949 11.6758C35.5684 11.6758 35.8184 11.7246 36.0449 11.8223C36.2734 11.918 36.4707 12.0576 36.6367 12.2412C36.8027 12.4229 36.9316 12.6436 37.0234 12.9033C37.1152 13.1631 37.1611 13.4561 37.1611 13.7822ZM36.1182 13.9551V13.7764C36.1182 13.5654 36.0996 13.3799 36.0625 13.2197C36.0273 13.0576 35.9746 12.9219 35.9043 12.8125C35.834 12.7031 35.7471 12.6211 35.6436 12.5664C35.542 12.5098 35.4258 12.4814 35.2949 12.4814C35.1582 12.4814 35.0391 12.5098 34.9375 12.5664C34.8359 12.6211 34.751 12.7031 34.6826 12.8125C34.6143 12.9219 34.5625 13.0576 34.5273 13.2197C34.4941 13.3799 34.4775 13.5654 34.4775 13.7764V13.9551C34.4775 14.1641 34.4941 14.3496 34.5273 14.5117C34.5625 14.6719 34.6143 14.8076 34.6826 14.9189C34.7529 15.0303 34.8389 15.1143 34.9404 15.1709C35.0439 15.2275 35.1641 15.2559 35.3008 15.2559C35.4316 15.2559 35.5479 15.2275 35.6494 15.1709C35.751 15.1143 35.8359 15.0303 35.9043 14.9189C35.9746 14.8076 36.0273 14.6719 36.0625 14.5117C36.0996 14.3496 36.1182 14.1641 36.1182 13.9551ZM41.3037 13.7822V13.9551C41.3037 14.2812 41.2578 14.5742 41.166 14.834C41.0762 15.0918 40.9482 15.3125 40.7822 15.4961C40.6162 15.6777 40.4199 15.8174 40.1934 15.915C39.9668 16.0107 39.7168 16.0586 39.4434 16.0586C39.168 16.0586 38.916 16.0107 38.6875 15.915C38.4609 15.8174 38.2637 15.6777 38.0957 15.4961C37.9297 15.3125 37.8008 15.0918 37.709 14.834C37.6191 14.5742 37.5742 14.2812 37.5742 13.9551V13.7822C37.5742 13.4561 37.6191 13.1631 37.709 12.9033C37.8008 12.6436 37.9287 12.4229 38.0928 12.2412C38.2588 12.0576 38.4551 11.918 38.6816 11.8223C38.9102 11.7246 39.1621 11.6758 39.4375 11.6758C39.7109 11.6758 39.9609 11.7246 40.1875 11.8223C40.416 11.918 40.6133 12.0576 40.7793 12.2412C40.9453 12.4229 41.0742 12.6436 41.166 12.9033C41.2578 13.1631 41.3037 13.4561 41.3037 13.7822ZM40.2607 13.9551V13.7764C40.2607 13.5654 40.2422 13.3799 40.2051 13.2197C40.1699 13.0576 40.1172 12.9219 40.0469 12.8125C39.9766 12.7031 39.8896 12.6211 39.7861 12.5664C39.6846 12.5098 39.5684 12.4814 39.4375 12.4814C39.3008 12.4814 39.1816 12.5098 39.0801 12.5664C38.9785 12.6211 38.8936 12.7031 38.8252 12.8125C38.7568 12.9219 38.7051 13.0576 38.6699 13.2197C38.6367 13.3799 38.6201 13.5654 38.6201 13.7764V13.9551C38.6201 14.1641 38.6367 14.3496 38.6699 14.5117C38.7051 14.6719 38.7568 14.8076 38.8252 14.9189C38.8955 15.0303 38.9814 15.1143 39.083 15.1709C39.1865 15.2275 39.3066 15.2559 39.4434 15.2559C39.5742 15.2559 39.6904 15.2275 39.792 15.1709C39.8936 15.1143 39.9785 15.0303 40.0469 14.9189C40.1172 14.8076 40.1699 14.6719 40.2051 14.5117C40.2422 14.3496 40.2607 14.1641 40.2607 13.9551ZM45.3994 11.7344V16H44.374L42.8652 13.3457V16H41.8369V11.7344H42.8652L44.374 14.3887V11.7344H45.3994Z" fill="white"/>
</g>
<defs>
<filter id="filter0_b_1632_66" x="18.2051" y="0.672852" width="31.1943" height="19.3857" filterUnits="userSpaceOnUse" color-interpolation-filters="sRGB">
<feFlood flood-opacity="0" result="BackgroundImageFix"/>
<feGaussianBlur in="BackgroundImage" stdDeviation="2"/>
<feComposite in2="SourceAlpha" operator="in" result="effect1_backgroundBlur_1632_66"/>
<feBlend mode="normal" in="SourceGraphic" in2="effect1_backgroundBlur_1632_66" result="shape"/>
</filter>
<linearGradient id="paint0_linear_1632_66" x1="27.25" y1="0" x2="27.25" y2="40" gradientUnits="userSpaceOnUse">
<stop offset="0.9997" stop-color="#1B90FC"/>
<stop offset="0.9998" stop-color="#0E4C85" stop-opacity="0.723958"/>
<stop offset="0.9999" stop-opacity="0.416667"/>
<stop offset="1" stop-opacity="0"/>
</linearGradient>
</defs>
</svg>
